<?xml version="1.0" standalone="no"?>
<!DOCTYPE svg PUBLIC "-//W3C//DTD SVG 20010904//EN"
 "http://www.w3.org/TR/2001/REC-SVG-20010904/DTD/svg10.dtd">
<svg version="1.0" xmlns="http://www.w3.org/2000/svg"
 width="625.000000pt" height="145.000000pt" viewBox="0 0 625.000000 145.000000"
 preserveAspectRatio="xMidYMid meet">

<g transform="translate(0.000000,145.000000) scale(0.100000,-0.100000)"
fill="#000000" stroke="none">
<path d="M195 1278 c-3 -7 -4 -251 -3 -543 l3 -530 540 0 540 0 0 540 0 540
-538 3 c-425 2 -539 0 -542 -10z m965 -533 l0 -425 -425 0 -425 0 0 425 0 425
425 0 425 0 0 -425z"/>
<path d="M660 1051 c-50 -15 -89 -42 -117 -77 -38 -51 -46 -156 -14 -207 25
-41 95 -80 182 -102 93 -23 129 -47 129 -84 0 -94 -181 -95 -220 -2 -7 18 -18
30 -24 28 -6 -3 -37 -10 -69 -17 l-57 -11 15 -37 c74 -181 407 -191 490 -15
21 45 22 120 2 159 -31 60 -70 85 -189 120 -111 33 -138 50 -138 86 0 73 152
77 192 5 l13 -23 62 19 63 19 -16 30 c-25 47 -74 87 -128 103 -53 16 -134 18
-176 6z"/>
<path d="M2550 944 l0 -105 -29 20 c-89 63 -206 22 -247 -87 -27 -68 -25 -202
4 -264 11 -27 33 -59 48 -73 51 -47 140 -45 193 4 l31 29 0 -29 0 -29 65 0 65
0 0 320 0 320 -65 0 -65 0 0 -106z m-31 -163 c24 -24 35 -90 29 -176 -3 -50
-9 -70 -28 -90 -28 -30 -63 -32 -90 -5 -27 27 -33 56 -29 154 4 73 7 88 28
110 29 31 64 33 90 7z"/>
<path d="M4190 730 l0 -320 60 0 60 0 2 256 3 256 76 -254 75 -253 53 0 53 0
78 248 c43 136 80 251 84 254 3 4 6 -109 6 -250 l0 -257 70 0 70 0 0 320 0
320 -114 0 -115 0 -45 -142 c-24 -79 -50 -162 -57 -185 -7 -24 -15 -43 -18
-43 -3 0 -13 26 -23 58 -9 31 -33 114 -54 185 l-37 127 -113 0 -114 0 0 -320z"/>
<path d="M5790 944 l0 -105 -29 20 c-89 63 -206 22 -247 -87 -27 -68 -25 -202
4 -264 11 -27 33 -59 48 -73 51 -47 140 -45 193 4 l31 29 0 -29 0 -29 65 0 65
0 0 320 0 320 -65 0 -65 0 0 -106z m-31 -163 c24 -24 35 -90 29 -176 -3 -50
-9 -70 -28 -90 -28 -30 -63 -32 -90 -5 -27 27 -33 56 -29 154 4 73 7 88 28
110 29 31 64 33 90 7z"/>
<path d="M1490 1023 c-34 -7 -40 -19 -40 -85 l0 -58 -45 0 -45 0 0 -55 0 -55
40 0 40 0 0 -142 c0 -124 3 -147 20 -175 21 -35 67 -53 135 -53 76 0 85 7 85
61 l0 49 -34 0 c-66 0 -66 0 -66 136 l0 124 50 0 50 0 0 55 0 55 -50 0 -50 0
0 75 0 75 -32 -1 c-18 -1 -44 -4 -58 -6z"/>
<path d="M3910 1023 c-34 -7 -40 -19 -40 -85 l0 -58 -45 0 -45 0 0 -55 0 -55
40 0 40 0 0 -142 c0 -124 3 -147 20 -175 21 -35 67 -53 135 -53 76 0 85 7 85
61 l0 49 -34 0 c-66 0 -66 0 -66 136 l0 124 50 0 50 0 0 55 0 55 -50 0 -50 0
0 75 0 75 -32 -1 c-18 -1 -44 -4 -58 -6z"/>
<path d="M2916 875 c-108 -38 -168 -173 -136 -305 16 -67 85 -143 145 -159 87
-24 166 -8 225 45 35 32 69 89 58 99 -2 2 -29 7 -60 11 -56 6 -57 6 -64 -20
-23 -92 -164 -59 -164 38 l0 36 150 0 150 0 0 28 c0 51 -30 131 -63 169 -59
67 -153 90 -241 58z m139 -100 c14 -13 25 -36 25 -50 0 -25 -1 -25 -80 -25
-88 0 -93 5 -65 60 24 47 81 55 120 15z"/>
<path d="M3504 871 c-18 -10 -39 -30 -48 -42 -16 -23 -16 -23 -16 14 l0 37
-65 0 -65 0 0 -235 0 -235 70 0 70 0 0 159 c0 145 2 161 21 185 24 31 68 35
92 8 14 -16 17 -44 17 -185 l0 -167 70 0 70 0 0 178 c0 202 -8 242 -52 273
-44 32 -123 36 -164 10z"/>
<path d="M5126 875 c-108 -38 -168 -173 -136 -305 16 -67 85 -143 145 -159 87
-24 166 -8 225 45 35 32 69 89 58 99 -2 2 -29 7 -60 11 -56 6 -57 6 -64 -20
-23 -92 -164 -59 -164 38 l0 36 150 0 150 0 0 28 c0 51 -30 131 -63 169 -59
67 -153 90 -241 58z m139 -100 c14 -13 25 -36 25 -50 0 -25 -1 -25 -80 -25
-88 0 -93 5 -65 60 24 47 81 55 120 15z"/>
<path d="M1760 689 c0 -158 3 -197 17 -226 36 -77 164 -86 228 -17 l25 27 0
-32 0 -31 65 0 65 0 0 235 0 235 -70 0 -70 0 0 -164 0 -165 -26 -20 c-35 -27
-69 -27 -88 1 -13 18 -16 54 -16 185 l0 163 -65 0 -65 0 0 -191z"/>
</g>
</svg>
